<svg width="91" height="41" viewBox="0 0 91 41" fill="none" xmlns="http://www.w3.org/2000/svg">
<path d="M52.7337 7.21417C52.8923 7.37367 53.0974 7.4805 53.3304 7.42575C55.3522 6.94999 57.3328 6.30223 59.1665 5.31185C59.3871 5.19274 59.5565 4.92119 59.6398 4.69493C59.7348 4.43627 59.7732 4.08116 59.6969 3.8116C59.6333 3.58807 59.5235 3.32627 59.3021 3.2167C59.0902 3.11186 58.8803 3.11909 58.6694 3.23296C58.0818 3.55043 57.4773 3.83435 56.8594 4.08735C55.6872 4.54794 54.4753 4.89141 53.2503 5.17964C52.7191 5.30462 52.4381 5.97962 52.4737 6.48089C52.4917 6.734 52.5475 7.02705 52.7337 7.21417Z" fill="white"/>
<path d="M85.0859 7.81625C85.0024 7.63982 84.8692 7.42642 84.6513 7.408C84.421 7.38861 84.2723 7.51061 84.1119 7.66148C83.3061 8.42031 82.6517 9.32196 81.8517 10.0853C81.5878 10.3208 81.3078 10.5358 81.0103 10.7275C81.1028 10.5321 81.1972 10.3379 81.2968 10.1462C81.6034 9.55475 81.9442 8.98195 82.3147 8.42874C82.4596 8.22014 82.5999 8.01466 82.695 7.77253C82.8276 7.43589 82.8347 6.97991 82.6918 6.64522C82.5999 6.42987 82.3458 6.12509 82.0677 6.24828C81.9144 6.31622 81.8226 6.37756 81.6997 6.50525C81.6603 6.54618 81.6228 6.58905 81.5846 6.63128C81.496 6.73039 81.4081 6.83008 81.3201 6.93023C81.1436 7.13214 80.9689 7.33594 80.7956 7.54116C80.4658 7.93235 80.1418 8.32853 79.8185 8.72496C79.1847 9.50085 78.5509 10.277 77.8738 11.0152C77.6857 11.2203 77.4949 11.4228 77.2996 11.6218C77.416 11.3898 77.5285 11.1556 77.6384 10.9204C78.073 9.9877 78.4669 9.03624 78.9209 8.11254C79.0534 7.84271 79.1912 7.57509 79.3354 7.31123C79.4046 7.18423 79.4757 7.0582 79.5482 6.93315C79.587 6.86627 79.6283 6.8005 79.6659 6.73298C79.7764 6.53567 79.8295 6.32995 79.8831 6.1103C79.9388 5.87891 79.9109 5.49863 79.8075 5.27939C79.7131 5.07903 79.5947 4.93466 79.3729 4.87113C79.0321 4.77351 78.7314 5.22278 78.5277 5.44442C78.3931 5.59058 78.2586 5.73663 78.1241 5.88247C77.8273 6.20424 77.5292 6.52542 77.231 6.84623C76.5927 7.53351 75.9525 8.21936 75.3129 8.90574C74.8111 9.44429 74.3086 9.98225 73.8074 10.5219C73.9781 10.0177 74.1456 9.51194 74.3105 9.0053C74.4586 8.55016 74.6099 8.0958 74.7516 7.63878C74.9107 7.12676 74.9572 6.46122 74.588 6.01982C74.3441 5.72814 73.9393 5.64762 73.6218 5.87922C73.3211 6.09845 73.1478 6.47726 72.9531 6.78844C72.8141 7.01105 72.6757 7.23372 72.5366 7.45652C72.2767 7.87352 72.0167 8.29058 71.7554 8.70693C71.2859 9.45596 70.8132 10.2035 70.3171 10.9357C69.8535 11.6138 69.3652 12.2932 68.7715 12.8623C68.5782 13.0321 68.3706 13.1852 68.1436 13.3062C67.9806 13.3745 67.8112 13.4222 67.6359 13.4456C67.6379 13.4369 67.6392 13.4282 67.6411 13.4196C67.6469 13.3963 67.6534 13.3729 67.6599 13.3498C67.7336 13.0914 67.8235 12.8377 67.9211 12.5875C67.9696 12.4617 68.022 12.3371 68.0744 12.2128L68.0757 12.2101C68.1074 12.1392 68.1391 12.0686 68.1714 11.9982C68.628 11.0077 69.157 10.0501 69.7144 9.11394C69.8354 8.91138 69.9569 8.70914 70.083 8.50982C70.213 8.30472 70.2609 8.0384 70.2783 7.80243C70.2952 7.58222 70.288 7.32757 70.1917 7.12365C70.1303 6.99392 70.0514 6.87036 69.9337 6.78487C69.7707 6.6663 69.5392 6.7095 69.3853 6.81445C68.0175 7.7458 66.6633 8.69928 65.3434 9.69803V9.69472C65.3466 9.66365 65.3492 9.63252 65.3524 9.60145C65.3641 9.48554 65.3783 9.36976 65.3951 9.25431C65.4119 9.1395 65.4313 9.02502 65.4527 8.91105C65.463 8.85728 65.4908 8.74397 65.507 8.67372C65.5523 8.5117 65.5995 8.35064 65.657 8.19232C65.6764 8.13958 65.6978 8.08802 65.7185 8.036C65.745 7.97658 65.7922 7.87047 65.8161 7.82331C65.853 7.75106 65.8931 7.68081 65.9332 7.61031C66.1356 7.35222 66.3348 7.09147 66.5281 6.82586C66.6982 6.59145 66.8101 6.34872 66.856 6.05903C66.8955 5.80751 66.8922 5.46571 66.7803 5.22813C66.6969 5.05167 66.5637 4.8383 66.3458 4.81985C66.122 4.80098 65.9571 4.91631 65.8071 5.07337C65.518 5.37564 65.269 5.7056 65.053 6.05526C64.3577 6.9168 63.6073 7.72946 62.8057 8.49769C62.711 8.58843 62.6157 8.67865 62.5203 8.76881C62.4914 8.35927 62.3926 7.93579 62.2023 7.57969C61.9824 7.16801 61.6724 6.83021 61.1988 6.73194C60.7877 6.64671 60.3875 6.79726 60.0225 6.96629C59.6546 7.13662 59.3229 7.37745 59.0113 7.63496C58.2464 8.26691 57.5636 8.98779 56.9224 9.74395C57.0069 9.5827 57.0919 9.42145 57.1723 9.2582C57.3467 8.90411 57.4501 8.47122 57.3511 8.07628C57.2823 7.80146 57.1578 7.53299 56.881 7.42811C56.4428 7.26213 56.0613 7.70818 55.7938 7.99773C55.4697 8.3487 55.1388 8.69098 54.828 9.0544C54.4269 9.52316 54.0412 10.005 53.6599 10.4899C53.2178 11.0519 52.7822 11.6189 52.3463 12.1858C52.6374 11.5679 52.9005 10.9283 53.02 10.2596C53.1086 9.76419 53.0999 9.14456 52.7745 8.72892C52.5342 8.42206 52.1858 8.3487 51.8186 8.42426C51.6212 8.46493 51.4349 8.55658 51.2531 8.63928C51.0713 8.72205 50.8963 8.81837 50.7252 8.92104C50.4328 9.0963 50.1502 9.2881 49.8729 9.4871C49.8376 9.39596 49.7893 9.31171 49.7228 9.24172C49.5814 9.09332 49.3713 8.96275 49.1559 9.03501C47.5502 9.5733 46.0447 10.3986 44.7406 11.4823C44.0489 12.0571 43.4008 12.6738 42.8216 13.3636C42.1778 14.1305 41.5731 14.9525 41.1806 15.8796C41.0186 16.2623 40.9088 16.6849 40.8667 17.1078C40.2026 17.6182 39.5358 18.1251 38.8669 18.6294C39.7944 17.2041 40.7079 15.7696 41.5936 14.3179C41.8612 13.8794 42.1299 13.4406 42.3759 12.9894C42.5068 12.7493 42.642 12.5028 42.7314 12.2443C42.8822 11.8081 42.912 11.2148 42.587 10.8409C42.4262 10.656 42.2293 10.5909 41.9972 10.6241C41.8154 10.6501 41.6745 10.7827 41.543 10.8956C41.3253 11.0825 41.1441 11.3182 40.9619 11.5388C40.824 11.706 40.6887 11.8751 40.5539 12.0447C40.4632 11.7994 40.3445 11.5702 40.1902 11.3493C40.0304 11.1205 39.8015 10.9064 39.5492 10.7857C38.6031 10.3332 37.5844 10.8452 36.8073 11.409C36.0572 11.9532 35.384 12.5961 34.7368 13.2598C34.7055 13.2836 34.6747 13.309 34.6455 13.3373C34.5247 13.4545 34.3988 13.5653 34.2688 13.6716C34.0752 13.8106 33.8707 13.9315 33.6523 14.0269C33.4749 14.0841 33.2932 14.1211 33.1073 14.1366C33.0037 14.1338 32.9005 14.1264 32.7987 14.1105C32.8012 14.031 32.8026 13.9514 32.8019 13.8716C32.7949 13.0862 32.5954 12.2116 32.0885 11.5934C31.7881 11.2272 31.3483 11.0435 30.8806 11.0867C30.6315 11.1097 30.4102 11.2267 30.2253 11.3922C30.128 11.3983 30.0324 11.4256 29.9467 11.483C28.56 12.4152 27.296 13.5008 26.1617 14.7147C26.1358 14.7367 26.111 14.76 26.0886 14.7861C26.0636 14.8155 26.0383 14.8446 26.0131 14.874C25.7272 15.1859 25.4505 15.5068 25.1818 15.8351C23.9318 17.2685 22.6459 18.6716 21.2431 19.957C20.7422 20.4159 20.2261 20.8581 19.6921 21.2779C19.0637 21.7593 18.4097 22.2073 17.7196 22.5956C17.495 22.722 17.325 22.9754 17.2372 23.2111C17.1409 23.4694 17.1032 23.8257 17.1822 24.0947C17.2487 24.3211 17.364 24.5818 17.5889 24.6915C17.8019 24.7953 18.0258 24.7966 18.2371 24.6778C19.6645 23.8744 20.9587 22.829 22.1636 21.7236C22.4984 21.4164 22.8262 21.1016 23.1492 20.7822C23.1638 20.843 23.1797 20.9035 23.1987 20.963C23.4191 21.6576 23.8897 22.2767 24.5668 22.5774C25.2377 22.8754 25.9804 22.8946 26.6862 22.7092C28.6331 22.1978 30.0523 20.7159 31.0752 19.0367C30.9521 19.6146 30.9015 20.2031 31.0475 20.7899C31.2085 21.4369 31.607 22.0665 32.3058 22.1959C32.8161 22.2905 33.3223 22.0643 33.7654 21.8379C34.4147 21.5061 35.0015 21.0426 35.5488 20.5524C35.2884 20.9433 35.0268 21.3334 34.7654 21.7236C33.8209 22.4437 32.8812 23.1707 31.9514 23.9102C30.8015 24.2192 29.6547 24.5402 28.5121 24.8761C27.269 25.2416 26.0306 25.6236 24.7981 26.0239C23.6165 26.4076 22.4403 26.808 21.2707 27.2271C20.0915 27.6497 18.9192 28.0921 17.754 28.5524C16.702 28.968 15.6567 29.401 14.6201 29.8537C13.632 30.2852 12.6518 30.7347 11.6813 31.2046C10.769 31.6466 9.86526 32.1067 8.97294 32.5882C8.13346 33.0412 7.304 33.5128 6.48767 34.0066C6.09974 34.2412 5.71485 34.481 5.33339 34.7261C5.33935 34.718 5.34531 34.7098 5.35127 34.7015C6.45203 33.1783 7.54044 31.646 8.62599 30.112C9.44355 28.9565 10.2603 27.8005 11.079 26.6458C11.1173 26.6186 11.1556 26.5915 11.1938 26.5641C12.2551 25.8029 13.2942 25.0111 14.3214 24.2043C15.4061 23.3524 16.4738 22.4789 17.527 21.5884C18.6464 20.6418 19.7496 19.6758 20.8361 18.6914C21.9437 17.6879 23.0342 16.6654 24.1042 15.622C25.1534 14.599 26.1833 13.5561 27.1869 12.4882C28.1316 11.4832 29.0536 10.4562 29.9396 9.39862C30.7854 8.38891 31.6044 7.35339 32.365 6.27732C32.6811 5.82994 32.9867 5.37501 33.2767 4.91002C33.6393 4.32833 34.0486 3.71027 34.2309 3.04658C34.3731 2.52875 34.4805 1.95451 34.3048 1.4288C34.2238 1.1864 34.1249 0.951126 33.9377 0.768799C33.748 0.584268 33.5826 0.503222 33.335 0.424692C33.0448 0.332637 32.7071 0.363147 32.4125 0.421232C32.0469 0.493367 31.6895 0.636901 31.3537 0.795639C30.5109 1.19405 29.7505 1.76369 29.031 2.35083C28.318 2.93283 27.6406 3.56337 26.983 4.20734C25.6477 5.51467 24.3538 6.86426 23.0978 8.24823C21.8616 9.61046 20.662 11.006 19.4933 12.4269C18.2875 13.8929 17.1129 15.3848 15.9613 16.894C14.8553 18.3434 13.7717 19.81 12.7011 21.286C11.8418 22.4708 10.992 23.6623 10.1448 24.8557C9.30638 25.445 8.45396 26.016 7.57309 26.5391C6.97334 26.8953 6.35763 27.2382 5.70961 27.4992C5.49918 27.5761 5.28081 27.6426 5.05867 27.6665C5.03891 27.665 5.01936 27.6627 4.99982 27.6598C4.92581 27.6314 4.84876 27.6217 4.76837 27.6333C4.65213 27.6236 4.54341 27.6521 4.44233 27.7189C4.22448 27.8406 4.03694 28.1015 3.95885 28.3343C3.86571 28.6122 3.81972 28.9317 3.90407 29.2179C3.96637 29.4294 4.08649 29.7321 4.31207 29.8149C4.44484 29.8637 4.56808 29.9178 4.70837 29.9275C4.86204 29.9383 5.02062 29.9315 5.17376 29.9118C5.39632 29.8832 5.61375 29.8154 5.82408 29.7389C6.25529 29.5821 6.67153 29.3936 7.0783 29.1854C6.82008 29.5501 6.5623 29.9151 6.30359 30.2793C5.21892 31.806 4.12809 33.3282 3.02231 34.8396C2.46221 35.6051 1.89824 36.3677 1.32946 37.1267C0.985537 37.5856 0.550982 38.0496 0.481361 38.6454C0.438293 39.0139 0.480943 39.4332 0.742908 39.7204C0.913094 39.9069 1.16513 39.993 1.4134 39.9444C1.67736 39.8927 1.8974 39.7039 2.09665 39.5389C2.39144 39.2948 2.68832 39.0537 2.98959 38.8177C3.75741 38.2268 4.54812 37.666 5.35628 37.1321C6.27233 36.5268 7.20991 35.9546 8.16263 35.4094C9.18648 34.8236 10.2279 34.2688 11.2821 33.74C12.4168 33.1709 13.5662 32.6317 14.7266 32.1179C15.9585 31.5723 17.2029 31.0553 18.4568 30.5627C18.5714 30.5177 18.6861 30.4731 18.8007 30.4286C20.3006 29.8495 21.8131 29.3037 23.3356 28.7876C24.8278 28.2819 26.3301 27.8055 27.8391 27.3528C27.1042 28.0075 26.3827 28.6772 25.6798 29.3663C24.7088 30.3183 23.7395 31.2914 22.922 32.3812C21.9983 33.6127 21.2601 34.9889 20.9396 36.5066C20.7805 37.2597 20.7771 38.1186 21.1203 38.8241C21.2806 39.1539 21.5202 39.478 21.8561 39.6417C22.1019 39.7616 22.3623 39.8381 22.6355 39.8337C22.9255 39.8291 23.1939 39.7946 23.4654 39.6899C23.755 39.5782 24.0318 39.4481 24.2928 39.2799C24.785 38.9627 25.2358 38.567 25.6452 38.1487C26.5863 37.1871 27.3066 36.0392 28.0325 34.9134C29.5507 32.5588 31.1088 30.2306 32.6726 27.9065C33.1931 27.1331 33.7142 26.36 34.2351 25.5868C35.8502 25.1769 37.4712 24.7898 39.0973 24.4264C41.0481 23.9905 43.0061 23.5865 44.9696 23.2119C46.3828 22.9422 47.7992 22.6888 49.2178 22.449C48.933 23.2104 48.7103 24.0003 48.6757 24.8127C48.6667 25.0239 48.6857 25.241 48.7281 25.4472C48.7937 25.7666 49.0084 26.1195 49.3718 26.1024C49.7313 26.0855 50.0125 25.7122 50.1078 25.3897C50.433 24.289 50.7977 23.2008 51.193 22.1238C60.6188 20.6204 70.1406 19.1124 79.6768 18.7367C80.2188 18.7154 80.5492 18.3686 80.5247 18.0516C80.4891 17.5876 80.244 17.2806 79.6406 17.2806C70.4717 17.6423 61.3524 18.6495 52.2274 19.6996C52.3444 19.485 52.4625 19.2709 52.5824 19.0579C53.1018 18.1339 53.6485 17.2251 54.2173 16.3306C54.2927 16.5691 54.3903 16.7995 54.5196 17.0149C54.6759 17.2752 54.8793 17.5277 55.1635 17.6538C55.4659 17.7879 55.7649 17.8188 56.0908 17.7409C56.7454 17.5846 57.2992 17.1076 57.7818 16.6653C58.3272 16.1656 58.8101 15.5976 59.2681 15.0178C59.7393 14.4214 60.1881 13.8061 60.6192 13.1786C61.0907 12.6166 61.5944 12.0825 62.1261 11.5716C62.7262 10.995 63.3395 10.4333 63.9318 9.84987C63.909 10.1742 63.9008 10.4976 63.9047 10.8177C63.0187 11.5293 62.1536 12.2716 61.3524 13.0772C60.8183 13.614 60.2728 14.2072 59.9278 14.889C59.7138 15.3119 59.5806 15.7529 59.5674 16.2291C59.5576 16.586 59.641 16.9826 59.8658 17.2691C60.1781 17.6675 60.6686 17.6893 61.1286 17.6418C61.5544 17.5979 61.9707 17.453 62.3602 17.2806C62.8807 17.0502 63.3826 16.7758 63.8335 16.4262C64.3434 16.031 64.7853 15.5689 65.1183 15.0137C65.5309 14.3246 65.6919 13.4932 65.571 12.7002C65.5335 12.454 65.4915 12.2091 65.4533 11.9635C66.0101 11.5399 66.574 11.1256 67.1412 10.7176C67.1263 10.7498 67.1108 10.7817 67.0959 10.8141C66.8191 11.4286 66.5469 12.0555 66.38 12.7107C66.1957 13.4342 66.045 14.2508 66.3438 14.9676C66.4473 15.2164 66.6245 15.4716 66.8741 15.5905C67.1619 15.7276 67.4245 15.7277 67.7368 15.6733C68.207 15.5915 68.6564 15.3366 69.0244 15.0389C69.5346 14.6259 69.9718 14.1306 70.3715 13.6114C70.925 12.8913 71.4262 12.1295 71.9197 11.3667C71.9779 11.2764 72.0354 11.1855 72.093 11.095C71.9533 11.486 71.8104 11.876 71.6616 12.2638C71.5614 12.5248 71.4592 12.7848 71.3545 13.0439C71.3053 13.1641 71.2562 13.2842 71.2057 13.4039C71.1798 13.4667 71.1533 13.5294 71.1268 13.592C71.0906 13.6774 70.971 13.9519 71.132 13.5809C71.0098 13.8631 70.9212 14.1269 70.925 14.4404C70.9283 14.663 70.98 14.9881 71.1352 15.1659C71.2626 15.3124 71.4424 15.4307 71.6474 15.3641C71.8498 15.2985 72.0303 15.1292 72.126 14.9392C72.3103 14.6972 72.5243 14.4727 72.7255 14.2479C73.1756 13.7439 73.6334 13.2464 74.0919 12.7499C74.7884 11.9954 75.4882 11.2439 76.1879 10.4928C76.0902 10.684 75.9894 10.8743 75.8852 11.0621C75.7404 11.3206 75.5722 11.5691 75.4494 11.8388C75.2081 12.3683 75.0698 12.9485 75.1836 13.5305C75.2547 13.8938 75.4442 14.2981 75.7837 14.4817C76.1362 14.6726 76.4847 14.6079 76.8268 14.4343C77.1101 14.2905 77.3313 14.0502 77.5583 13.8325C78.1953 13.2206 78.7902 12.5673 79.3645 11.8958C79.4667 12.288 79.7195 12.6542 80.0843 12.8399C80.2518 12.9253 80.4451 13.0044 80.6365 13.0134C80.9224 13.0269 81.1242 12.9651 81.3654 12.8126C82.0354 12.39 82.6161 11.8336 83.1464 11.2482C83.7045 10.6317 84.227 9.98498 84.8336 9.41393C85.0154 9.24289 85.1246 8.88037 85.1615 8.6472C85.201 8.39566 85.1977 8.05384 85.0859 7.81625ZM18.3971 16.7057C18.496 16.5791 18.5955 16.4529 18.6949 16.3266C20.0498 14.6118 21.4422 12.9263 22.8848 11.2849C24.3662 9.59937 25.9002 7.95991 27.4936 6.38028C28.3527 5.52861 29.2319 4.68607 30.1838 3.93799C30.7725 3.49051 31.4039 3.06724 32.0887 2.7852C32.2437 2.73121 32.4025 2.68675 32.5641 2.65939C32.3093 3.13508 32.0162 3.5942 31.7213 4.04389C31.3576 4.5981 30.9743 5.13921 30.5782 5.67047C30.3728 5.9459 30.1632 6.21829 29.9513 6.48878C29.0711 7.59889 28.1456 8.67256 27.1924 9.72008C26.1353 10.8819 25.0442 12.0126 23.9299 13.1194C22.78 14.2616 21.6049 15.3783 20.4095 16.4725C19.2313 17.5507 18.0333 18.6072 16.816 19.6408C16.2415 20.1285 15.6628 20.6112 15.0793 21.0882C16.1656 19.6126 17.2684 18.1491 18.3971 16.7057ZM43.1601 15.7425C43.7687 14.9302 44.4647 14.1877 45.2346 13.5276C46.1449 12.7784 47.1483 12.1489 48.2213 11.6632C48.2255 11.7111 48.2322 11.7575 48.2417 11.8023C48.1201 12.1443 47.9843 12.4813 47.836 12.8129C47.481 13.559 47.0602 14.2717 46.5773 14.9417C46.0045 15.7001 45.3533 16.396 44.6294 17.0111C44.2814 17.2976 43.9166 17.5745 43.5105 17.7692C43.3709 17.8205 43.2283 17.8568 43.0804 17.8742C42.9929 17.8694 42.9073 17.8551 42.8222 17.8328C42.7594 17.8019 42.6997 17.7662 42.643 17.7251C42.5974 17.6774 42.5555 17.6268 42.5163 17.5738C42.4902 17.5242 42.4668 17.4734 42.4451 17.4219C42.4316 17.3709 42.4196 17.3195 42.4098 17.2678C42.4087 17.2437 42.4081 17.2195 42.4077 17.1955C42.4157 17.1363 42.4254 17.0773 42.4371 17.0188C42.468 16.922 42.5029 16.8268 42.5417 16.7329C42.7172 16.3848 42.9323 16.0585 43.1601 15.7425ZM29.2288 18.5732C28.8897 18.9888 28.5137 19.3721 28.094 19.7061C27.7368 19.9647 27.3535 20.1829 26.9455 20.3507C26.6308 20.4616 26.3065 20.54 25.9739 20.565C25.7705 20.561 25.5699 20.5338 25.3745 20.4776C25.245 20.4216 25.1227 20.3526 25.0074 20.2706C24.9516 20.2179 24.8994 20.1617 24.8505 20.1025C24.8269 20.0617 24.8044 20.0203 24.7842 19.9778C24.7779 19.9551 24.7711 19.9322 24.7656 19.9092C24.7641 19.883 24.7632 19.8565 24.7625 19.8302C24.7692 19.7811 24.7771 19.7323 24.7866 19.6836C24.8265 19.5596 24.8733 19.4383 24.926 19.319C25.2265 18.7463 25.6206 18.219 26.0205 17.7105C26.0988 17.6124 26.1791 17.5161 26.2591 17.4195C26.4563 17.1921 26.6525 16.9636 26.8487 16.7351C27.6567 15.8391 28.5407 15.0137 29.4912 14.2698C29.5875 14.1967 29.6846 14.1247 29.7821 14.0534C29.8432 14.2231 29.916 14.388 29.9998 14.5446C30.211 14.9395 30.4911 15.2937 30.8246 15.5891C30.6764 16.0115 30.4998 16.4244 30.3075 16.8276C29.9994 17.4399 29.6443 18.028 29.2288 18.5732ZM34.4848 18.9659C34.0537 19.3125 33.5937 19.6339 33.088 19.8592C32.98 19.8994 32.8704 19.9308 32.7563 19.9472C32.7175 19.9442 32.679 19.9387 32.6409 19.9308C32.6234 19.9213 32.606 19.9117 32.5892 19.901C32.5853 19.8966 32.5817 19.8917 32.5778 19.8872C32.574 19.8794 32.5696 19.8718 32.5659 19.8639C32.5606 19.8425 32.5547 19.8213 32.5502 19.7997C32.5474 19.751 32.5461 19.7023 32.5461 19.6535C32.5594 19.5562 32.578 19.4598 32.5992 19.3639C32.6896 19.0384 32.8044 18.7215 32.9414 18.413C33.1716 17.9517 33.4475 17.5165 33.75 17.0996C34.176 16.5403 34.6398 16.0179 35.1218 15.5082C35.2732 15.3855 35.4196 15.2567 35.5593 15.1211C35.6397 15.0431 35.7076 14.9471 35.7637 14.8431C36.156 14.4474 36.5602 14.0634 36.9879 13.7068C37.3352 13.4306 37.7032 13.1731 38.1064 12.9875C38.2607 12.9307 38.4195 12.8891 38.5829 12.8713C38.6557 12.8756 38.7276 12.886 38.7983 12.9035C38.8504 12.9292 38.9002 12.9586 38.9479 12.9919C38.9869 13.0321 39.0233 13.0746 39.0573 13.1192C39.0823 13.1663 39.1047 13.2145 39.1257 13.2634C39.1471 13.3401 39.1647 13.4177 39.1788 13.4961C39.1828 13.5604 39.1847 13.6247 39.1845 13.6891C39.1815 13.7157 39.1793 13.7423 39.1756 13.7686C38.0041 15.2418 36.8266 16.7186 35.4893 18.0446C35.1666 18.3647 34.8332 18.6739 34.4848 18.9659ZM27.6099 32.4301C27.0876 33.2309 26.5887 34.0502 26.0465 34.8375C25.9252 35.0137 25.8005 35.1874 25.6735 35.3596C25.2419 35.9225 24.77 36.453 24.2285 36.9119C23.962 37.1209 23.6789 37.3103 23.3722 37.4541C23.2133 37.5128 23.0498 37.555 22.8816 37.5727C22.7983 37.5682 22.7162 37.5567 22.6355 37.5366C22.5955 37.5179 22.5563 37.4973 22.5185 37.4745C22.5078 37.4619 22.4976 37.4488 22.4874 37.4358C22.4733 37.4085 22.46 37.3808 22.4476 37.3527C22.4412 37.3269 22.4358 37.3008 22.4305 37.2748C22.4279 37.2239 22.4269 37.1728 22.4273 37.1219C22.4427 36.9903 22.4645 36.8599 22.4923 36.7304C22.5967 36.353 22.7316 35.9823 22.8914 35.625C23.1791 35.0413 23.5255 34.4892 23.9085 33.9636C24.6856 32.9459 25.6094 32.0325 26.5215 31.1382C27.4698 30.2085 28.4517 29.3137 29.455 28.4442C29.9969 27.9746 30.5458 27.513 31.099 27.0567C31.1574 27.0087 31.2165 26.9616 31.2751 26.9137C30.588 27.9355 29.902 28.9582 29.2207 29.9841C28.6806 30.7973 28.1432 31.6123 27.6099 32.4301ZM40.7208 21.804C39.3662 22.0933 38.0146 22.398 36.6669 22.7183C37.6316 21.9908 38.5977 21.2656 39.5621 20.5377C40.1477 20.0958 40.7312 19.6511 41.3131 19.2042C41.5936 19.6342 41.9524 19.9543 42.4645 20.0944C42.9929 20.2389 43.5495 20.0542 44.02 19.8192C44.4 19.6293 44.7403 19.3647 45.0693 19.0981C45.4304 18.8054 45.782 18.5009 46.1144 18.1757C46.7479 17.5554 47.3064 16.8671 47.8157 16.1416C48.7177 14.8568 49.4151 13.3995 49.8534 11.8869C50.1215 11.685 50.3933 11.4878 50.6713 11.3C50.844 11.1833 51.0197 11.0691 51.1998 10.9628C50.8554 11.7104 50.4703 12.4394 50.0834 13.1655C49.6209 14.0337 49.1498 14.8975 48.6989 15.7718C48.463 16.2291 48.2325 16.6894 48.0157 17.1562C47.9087 17.3865 47.833 17.6056 47.8151 17.8628C47.7996 18.0845 47.8112 18.3405 47.9139 18.5434C47.9809 18.6761 48.0673 18.7994 48.1908 18.8852C48.365 19.0062 48.6049 18.9642 48.7725 18.8609C49.0472 18.6912 49.2921 18.4691 49.5286 18.2516C49.7748 18.0254 50.0062 17.783 50.2313 17.5358C50.7952 16.9166 51.3217 16.2635 51.8408 15.6066C52.2005 15.1513 52.5549 14.6918 52.9084 14.2316C52.116 15.8861 51.3582 17.5591 50.667 19.259C50.5388 19.5073 50.4133 19.7569 50.2905 20.0079C50.076 20.0429 49.8615 20.0775 49.647 20.1131C48.1315 20.3655 46.6185 20.6344 45.109 20.9206C43.6429 21.1985 42.18 21.4924 40.7208 21.804ZM57.3967 14.5161C57.2419 14.6757 57.0813 14.8297 56.9152 14.9775C56.7033 15.1534 56.4781 15.3168 56.2327 15.4411C56.1396 15.4767 56.0438 15.5039 55.9453 15.5188C55.905 15.516 55.8651 15.5104 55.8257 15.5016C55.8042 15.4898 55.7832 15.477 55.763 15.4632C55.7345 15.4313 55.7077 15.3983 55.6829 15.3634C55.6528 15.3023 55.6262 15.2394 55.6021 15.1755C55.5453 14.9685 55.5064 14.7569 55.4785 14.5439C55.4754 14.5105 55.4723 14.4771 55.4697 14.4436C55.6034 14.2504 55.7371 14.0572 55.8733 13.8658C56.3224 13.2422 56.785 12.6282 57.2688 12.0312C57.7221 11.4718 58.193 10.9253 58.6958 10.41C58.9223 10.1776 59.1566 9.95281 59.3999 9.73818C59.7001 9.48541 60.0204 9.24775 60.3723 9.07483C60.4874 9.02962 60.6067 8.99537 60.729 8.97851C60.7693 8.98111 60.8091 8.98668 60.8484 8.99505C60.8686 9.00608 60.8885 9.01749 60.9077 9.0304C60.9212 9.04629 60.9346 9.06225 60.9472 9.07905C60.9617 9.10966 60.9752 9.1406 60.9877 9.17206C61.0002 9.22161 61.0111 9.27156 61.0202 9.32183C61.0215 9.35277 61.0221 9.38383 61.0221 9.41477C61.0182 9.44137 61.0138 9.46803 61.0092 9.49455C60.9953 9.53723 60.9798 9.57946 60.9638 9.6213C60.8005 9.93542 60.5898 10.2331 60.4006 10.5287C60.1595 10.9054 59.9132 11.279 59.6613 11.6486C59.5149 11.8633 59.366 12.0761 59.2153 12.2878C58.6544 13.0652 58.0639 13.8276 57.3967 14.5161ZM64.2318 13.4529C64.2272 13.4628 64.2225 13.4726 64.2179 13.4823C64.2193 13.4765 64.2207 13.4707 64.2221 13.4652C64.2975 13.285 64.2654 13.3818 64.2318 13.4529ZM64.1855 13.5446C64.1573 13.5995 64.1271 13.6532 64.0949 13.7057C63.9792 13.8613 63.8503 14.0064 63.7119 14.1421C63.3953 14.4232 63.0452 14.6661 62.6759 14.8719C62.5805 14.9251 62.4832 14.9744 62.3853 15.0227C62.1379 15.1352 61.8822 15.2335 61.6197 15.305C61.7996 15.1062 61.9872 14.9144 62.1767 14.727C62.3173 14.5881 62.4613 14.4525 62.6058 14.3178C63.0914 13.8735 63.5916 13.4451 64.1016 13.0281C64.13 13.2001 64.1591 13.3721 64.1855 13.5446ZM80.6249 11.6074C80.6165 11.6303 80.6087 11.6534 80.599 11.6761C80.5169 11.8627 80.5635 11.7514 80.6249 11.6074Z" fill="white"/>
<path d="M87.1863 4.7771C87.2471 4.71528 87.315 4.63627 87.3984 4.54354C87.4825 4.4508 87.5659 4.35463 87.6571 4.25158C87.7444 4.14854 87.8278 4.04893 87.9042 3.9562C87.9798 3.86346 88.0445 3.78103 88.0975 3.71233C88.1506 3.64707 88.1771 3.60242 88.1848 3.57838C88.1926 3.55433 88.1965 3.53373 88.1965 3.51655C88.1965 3.45129 88.1467 3.41694 88.0484 3.41694C87.9113 3.41694 87.7367 3.45472 87.5278 3.53029L87.5317 3.5612C87.5317 3.57838 87.52 3.61959 87.4935 3.68829C87.4709 3.76041 87.4405 3.84972 87.4023 3.9562C87.3079 4.24128 87.2355 4.51606 87.1863 4.7771ZM86.8824 5.87622C87.057 5.87622 87.2316 5.81783 87.4062 5.70105C87.5808 5.58427 87.7483 5.42283 87.9074 5.21675C87.5666 5.33623 87.3202 5.60959 87.11 5.70448L87.057 5.71135C86.9166 5.71135 86.8177 5.62548 86.7647 5.45718C86.7226 5.33697 86.7 5.18927 86.7 5.0141C86.7 4.69123 86.742 4.36837 86.8293 4.04893C86.8746 3.85315 86.9276 3.68829 86.9923 3.5509C87.057 3.41694 87.1139 3.33794 87.1708 3.3139L87.1669 3.28642C87.1669 3.26581 87.1786 3.24864 87.2051 3.23147C87.2394 3.20742 87.3267 3.17994 87.4592 3.14903C87.5847 3.13186 87.6953 3.12499 87.7897 3.12499C87.9378 3.12499 88.0749 3.14216 88.1965 3.17307C88.3329 3.21429 88.4319 3.28299 88.4998 3.37916C88.5379 3.44099 88.5573 3.50624 88.5573 3.56807C88.5573 3.77072 88.4015 4.0558 88.0898 4.41989C87.9643 4.56071 87.8201 4.71871 87.6532 4.89388L87.9151 4.82175C88.0102 4.79771 88.1053 4.7874 88.1965 4.7874C88.2877 4.63284 88.3672 4.47484 88.4429 4.31685C88.5838 4.00772 88.686 3.72951 88.7429 3.48564C88.7623 3.38603 88.7733 3.29673 88.7733 3.22459C88.7585 3.04256 88.6938 2.9189 88.58 2.84677C88.5075 2.80556 88.4163 2.78495 88.3064 2.78495C88.181 2.78495 88.0445 2.81243 87.8886 2.86738C87.7024 2.93264 87.5168 3.02194 87.3267 3.14216C87.1365 3.26238 86.9736 3.38947 86.8403 3.52685C86.6884 3.67798 86.5823 3.81537 86.5293 3.93902C86.3734 4.39584 86.2861 4.7874 86.2745 5.10684C86.2745 5.23049 86.2822 5.33353 86.301 5.4194C86.3391 5.60487 86.4303 5.7354 86.5823 5.81096C86.6657 5.85561 86.7647 5.87622 86.8824 5.87622ZM87.11 6.26778C86.9619 6.26778 86.8216 6.24717 86.6845 6.20939C86.4685 6.151 86.2822 6.04796 86.1186 5.90026C85.9479 5.7457 85.8263 5.54649 85.7545 5.30262C85.7009 5.14462 85.6782 4.97288 85.6782 4.79084C85.6782 4.67406 85.686 4.54697 85.7086 4.41646C85.686 4.40958 85.6633 4.40271 85.6439 4.39241C85.587 4.3615 85.5566 4.3031 85.5566 4.22411C85.5566 4.09358 85.6291 3.92185 85.7733 3.70546C85.8832 3.54059 86.0242 3.37572 86.1988 3.20742C86.3695 3.03912 86.5635 2.89143 86.7795 2.75747C87.1404 2.53764 87.5013 2.42773 87.8621 2.42773C88.018 2.42773 88.1622 2.43804 88.3025 2.46552C88.7054 2.54108 88.99 2.67847 89.1536 2.88112C89.2293 2.97386 89.2674 3.08721 89.2674 3.22116V3.28642C89.2144 3.81537 89.085 4.31685 88.8839 4.79427C88.7662 5.07592 88.6213 5.32322 88.4506 5.54305C88.0749 6.02735 87.6267 6.26778 87.11 6.26778Z" fill="white"/>
<path d="M83.6354 17.1048C83.0902 17.0571 82.5321 17.0613 81.994 17.1323C81.7871 17.1597 81.6099 17.2654 81.4922 17.392C81.3603 17.535 81.273 17.7493 81.2865 17.9259C81.2988 18.0889 81.3467 18.2757 81.5058 18.3987C81.6442 18.5061 81.8265 18.5812 82.0315 18.5542C82.3297 18.5148 82.6317 18.4969 82.935 18.4982C83.052 18.5025 83.1684 18.5089 83.2848 18.5191C83.4957 18.5376 83.6767 18.4947 83.8352 18.3892C84.002 18.2776 84.132 18.0875 84.165 17.9211C84.1999 17.7474 84.1999 17.5494 84.0822 17.3891C83.9898 17.2623 83.8417 17.1228 83.6354 17.1048Z" fill="white"/>
</svg>
